{
  "asset": {
    "version": "2.0",
    "generator": "THREE.GLTFExporter"
  },
  "scenes": [
    {
      "nodes": [
        0
      ]
    }
  ],
  "scene": 0,
  "nodes": [
    {
      "children": [
        1,
        2,
        3,
        4
      ],
      "matrix": [
        0.01,
        0,
        0,
        0,
        0,
        0.01,
        0,
        0,
        0,
        0,
        0.01,
        0,
        0,
        0,
        0,
        1
      ]
    },
    {
      "matrix": [
        1,
        0,
        0,
        0,
        0,
        1,
        0,
        0,
        0,
        0,
        1,
        0,
        0,
        250,
        0,
        1
      ],
      "name": "Path",
      "mesh": 0
    },
    {
      "matrix": [
        0.6147605247077538,
        -0.5259423143441418,
        -0.5877535021106852,
        0,
        0.6500819174661936,
        0.7598641329760717,
        0,
        0,
        0.44661280528498554,
        -0.3820879236495847,
        0.8090400612804194,
        0,
        0,
        0,
        0,
        1
      ],
      "name": "Directional Light",
      "extensions": {
        "KHR_lights_punctual": {
          "light": 0
        }
      }
    },
    {
      "matrix": [
        1,
        0,
        0,
        0,
        0,
        1,
        -6.123233955876395e-17,
        0,
        0,
        6.123233955876395e-17,
        1,
        0,
        3.410605131648481e-13,
        -0.000004999999812457036,
        1000.0999999995706,
        1
      ],
      "camera": 0
    },
    {
      "matrix": [
        1,
        0,
        0,
        0,
        0,
        1,
        0,
        0,
        0,
        0,
        1,
        0,
        0,
        1,
        0,
        1
      ],
      "name": "Default Ambient Light"
    }
  ],
  "bufferViews": [
    {
      "buffer": 0,
      "byteOffset": 0,
      "byteLength": 9576,
      "target": 34962,
      "byteStride": 12
    },
    {
      "buffer": 0,
      "byteOffset": 9576,
      "byteLength": 9576,
      "target": 34962,
      "byteStride": 12
    },
    {
      "buffer": 0,
      "byteOffset": 19152,
      "byteLength": 6384,
      "target": 34962,
      "byteStride": 8
    },
    {
      "buffer": 0,
      "byteOffset": 25536,
      "byteLength": 8880,
      "target": 34963
    }
  ],
  "buffers": [
    {
      "byteLength": 34416,
      "uri": "data:application/octet-stream;base64,"
    }
  ],
  "accessors": [
    {
      "bufferView": 0,
      "componentType": 5126,
      "count": 798,
      "max": [
        292.3692321777344,
        49.95075225830078,
        50
      ],
      "min": [
        -347.806884765625,
        -549.468994140625,
        -50
      ],
      "type": "VEC3"
    },
    {
      "bufferView": 1,
      "componentType": 5126,
      "count": 798,
      "max": [
        0.8830150961875916,
        0.9871654510498047,
        0.9872409105300903
      ],
      "min": [
        -0.8830150961875916,
        -0.9871654510498047,
        -0.9872409105300903
      ],
      "type": "VEC3"
    },
    {
      "bufferView": 2,
      "componentType": 5126,
      "count": 798,
      "max": [
        1,
        1
      ],
      "min": [
        0,
        0
      ],
      "type": "VEC2"
    },
    {
      "bufferView": 3,
      "componentType": 5123,
      "count": 4440,
      "max": [
        797
      ],
      "min": [
        0
      ],
      "type": "SCALAR"
    }
  ],
  "meshes": [
    {
      "primitives": [
        {
          "mode": 4,
          "attributes": {
            "POSITION": 0,
            "NORMAL": 1,
            "TEXCOORD_0": 2
          },
          "extras": {
            "path": {
              "points": [
                {
                  "fi": 0,
                  "id": "cc73a468-363f-4b9b-8cac-5ab5dcc2b140",
                  "data": {
                    "position": [
                      0,
                      0,
                      0
                    ],
                    "controlPrevious": {
                      "position": [
                        0,
                        0,
                        0
                      ]
                    },
                    "controlNext": {
                      "position": [
                        0,
                        0,
                        0
                      ]
                    },
                    "areControlsDirectionsMirrored": true,
                    "roundness": 0
                  }
                },
                {
                  "fi": 1,
                  "id": "76b53507-ba5c-4e92-b964-93c854920970",
                  "data": {
                    "position": [
                      -303.9999999999998,
                      -493.1506849315068,
                      0
                    ],
                    "controlPrevious": {
                      "position": [
                        -303.9999999999998,
                        -493.1506849315068,
                        0
                      ]
                    },
                    "controlNext": {
                      "position": [
                        -303.9999999999998,
                        -493.1506849315068,
                        0
                      ]
                    },
                    "areControlsDirectionsMirrored": true,
                    "roundness": 0
                  }
                },
                {
                  "fi": 2,
                  "id": "d04efdf8-fbdb-43d7-890a-894bcd1454fb",
                  "data": {
                    "position": [
                      250,
                      -499.99999999999994,
                      0
                    ],
                    "controlPrevious": {
                      "position": [
                        250,
                        -499.99999999999994,
                        0
                      ]
                    },
                    "controlNext": {
                      "position": [
                        250,
                        -499.99999999999994,
                        0
                      ]
                    },
                    "areControlsDirectionsMirrored": true,
                    "roundness": 0
                  }
                }
              ],
              "lastInsertionPlane": {
                "position": [
                  217.35788084155294,
                  -21.53073347958739,
                  0
                ],
                "normal": [
                  0,
                  -6.123233995736766e-17,
                  -1
                ]
              },
              "subdivisions": 12,
              "isClosed": true
            },
            "parameters": {
              "width": 553.9999999999998,
              "height": 499.99999999999994,
              "depth": 0,
              "subdivisions": 12,
              "roundness": 0,
              "extrudeBevelSize": 0,
              "extrudeBevelSegments": 3,
              "type": "PathGeometry",
              "path": {
                "points": [
                  {
                    "fi": 0,
                    "id": "cc73a468-363f-4b9b-8cac-5ab5dcc2b140",
                    "data": {
                      "position": [
                        0,
                        0,
                        0
                      ],
                      "controlPrevious": {
                        "position": [
                          0,
                          0,
                          0
                        ]
                      },
                      "controlNext": {
                        "position": [
                          0,
                          0,
                          0
                        ]
                      },
                      "areControlsDirectionsMirrored": true,
                      "roundness": 0
                    }
                  },
                  {
                    "fi": 1,
                    "id": "76b53507-ba5c-4e92-b964-93c854920970",
                    "data": {
                      "position": [
                        -303.9999999999998,
                        -493.1506849315068,
                        0
                      ],
                      "controlPrevious": {
                        "position": [
                          -303.9999999999998,
                          -493.1506849315068,
                          0
                        ]
                      },
                      "controlNext": {
                        "position": [
                          -303.9999999999998,
                          -493.1506849315068,
                          0
                        ]
                      },
                      "areControlsDirectionsMirrored": true,
                      "roundness": 0
                    }
                  },
                  {
                    "fi": 2,
                    "id": "d04efdf8-fbdb-43d7-890a-894bcd1454fb",
                    "data": {
                      "position": [
                        250,
                        -499.99999999999994,
                        0
                      ],
                      "controlPrevious": {
                        "position": [
                          250,
                          -499.99999999999994,
                          0
                        ]
                      },
                      "controlNext": {
                        "position": [
                          250,
                          -499.99999999999994,
                          0
                        ]
                      },
                      "areControlsDirectionsMirrored": true,
                      "roundness": 0
                    }
                  }
                ],
                "lastInsertionPlane": {
                  "position": [
                    217.35788084155294,
                    -21.53073347958739,
                    0
                  ],
                  "normal": [
                    0,
                    -6.123233995736766e-17,
                    -1
                  ]
                },
                "subdivisions": 12,
                "isClosed": true
              },
              "extrusion": {
                "shape": {
                  "type": "Ellipse",
                  "width": 100,
                  "height": 100,
                  "spikes": 24,
                  "angle": 360,
                  "innerRadius": 0
                },
                "depth": 1,
                "offset": 0,
                "bevel": 0,
                "bevelSides": 1,
                "angle": 6.283185307179586,
                "twist": 0,
                "startScale": 1,
                "endScale": 1
              }
            },
            "shapeData": {
              "points": [
                -50,
                0,
                -50,
                -27.614237489999997,
                -50,
                27.614237489999997,
                0,
                0,
                50,
                -27.614237489999997,
                50,
                27.614237489999997,
                50,
                0,
                50,
                0,
                50,
                27.614237489999997,
                50,
                -27.614237489999997,
                0,
                0,
                -50,
                27.614237489999997,
                -50,
                -27.614237489999997,
                -50,
                0
              ],
              "shapeHoles": [],
              "isClosed": true,
              "roundness": 0
            },
            "type": "PathGeometry"
          },
          "indices": 3
        }
      ]
    }
  ],
  "extensions": {
    "KHR_lights_punctual": {
      "lights": [
        {
          "name": "Directional Light",
          "color": [
            1,
            1,
            1
          ],
          "intensity": 1,
          "type": "directional"
        }
      ]
    }
  },
  "cameras": [
    {
      "type": "orthographic",
      "orthographic": {
        "xmag": 19.68524203848024,
        "ymag": 9.52478638216049,
        "zfar": 100000,
        "znear": 0
      }
    }
  ],
  "extensionsUsed": [
    "KHR_lights_punctual"
  ]
}